<svg width="140" height="117" viewBox="0 0 140 117" fill="none" xmlns="http://www.w3.org/2000/svg">
<path d="M10.2966 24.8584C-14.0579 54.6256 12.2291 89.0317 13.7754 90.9646C47.7948 94.0573 118.308 98.3871 128.204 90.9646C140.575 81.6865 151.4 22.9255 115.834 9.00836C80.2677 -4.90875 34.6511 -4.90875 10.2966 24.8584Z" fill="#EBF8FF"/>
<path d="M80.0588 77.6219C73.1859 78.8264 60.3328 79.3224 63.904 71.6705C68.3681 62.1055 74.3196 63.8059 83.8846 66.3566C81.9008 65.4355 79.1234 62.1055 83.8846 56.154C89.6126 48.994 97.1127 56.6008 97.668 63.625C97.6733 60.9438 98.674 56.2025 102.802 53.6034C108.496 50.0184 112.097 58.9867 109.871 64.3175C110.631 62.6862 114.071 60.3043 122.357 62.9557C132.985 66.3566 122.782 79.1097 111.729 77.6219C100.676 76.1341 97.4882 74.2212 90.6864 75.9216C85.245 77.2819 81.3341 77.6219 80.0588 77.6219Z" fill="url(#paint0_linear_786_6958)"/>
<path d="M67.7579 116.42C36.4372 116.42 13.5996 103.664 5.88281 95.2695L138.857 87.103C133.07 93.9323 106.909 116.42 67.7579 116.42Z" fill="#E37632"/>
<path d="M40.7705 107.516C32.1939 109.511 27.4782 105.624 26.8796 104.626C25.882 102.632 62.1828 91.5624 64.7757 90.8644C67.3686 90.1663 136.678 85.0802 137.775 87.0747C138.872 89.0692 135.083 90.6649 130.894 91.5624C126.706 92.4599 122.517 92.3602 121.221 92.8589C119.924 93.3575 123.687 93.1067 123.088 97.9932C122.49 102.88 93.5966 101.734 82.7264 100.937C71.8563 100.139 71.7234 99.8397 68.4325 100.937C65.1415 102.034 58.8919 105.723 55.202 105.624C51.5121 105.524 49.3471 105.522 40.7705 107.516Z" fill="#CC6A2D"/>
<path d="M64.4112 104.801C58.3314 106.742 52.3984 105.61 50.1919 104.801C45.0437 101.681 35.9729 106.534 28.373 104.801C20.7732 103.068 37.6892 100.988 23.4701 100.815C9.25111 100.642 -5.94848 93.3629 11.2124 85.0444C28.3733 76.7259 56.321 75.1661 88.6816 75.1661C121.042 75.1661 139.674 83.8312 139.429 86.7774C139.184 89.7235 130.113 88.6837 126.19 90.2434C122.268 91.8031 123.494 92.4964 123.739 95.6158C123.984 98.7352 121.287 99.2551 109.765 99.6017C98.2426 99.9483 92.604 97.3488 83.7785 97.6954C74.9529 98.042 72.011 102.375 64.4112 104.801Z" fill="#A5BF3A"/>
<path d="M14.6316 93.646C5.76749 89.594 15.159 83.7268 20.9628 81.2997C70.2165 64.3254 127.383 78.9798 131.083 81.2997C134.784 83.6195 128.176 84.5302 121.833 85.3231C115.49 86.116 121.304 91.402 114.432 93.646L114.401 93.6563C107.553 95.8925 105.131 96.6834 71.8797 93.646C38.5776 90.604 25.7117 98.7111 14.6316 93.646Z" fill="#9BAF34"/>
<path d="M20.2033 89.3846C18.2926 87.6113 21.295 84.4741 22.1139 83.9285C30.8439 79.7001 39.0279 82.8372 45.5754 83.11C52.1228 83.3828 59.8979 83.9285 64.1264 88.157C68.355 92.3855 63.4444 94.2952 59.2159 94.4316C54.9873 94.568 49.8039 91.0215 51.9864 93.0676C54.1689 95.1136 50.6223 97.1597 46.3938 98.6602C42.1652 100.161 42.5745 97.9781 39.0279 95.3865C35.4814 92.7948 34.7994 92.6584 30.298 91.9763C25.7967 91.2943 22.1139 91.1579 20.2033 89.3846Z" fill="#7D8D2A"/>
<path d="M68.8026 64.504C68.9141 66.0367 69.3878 67.4579 70.1123 68.266C72.3695 70.8297 75.1004 71.2198 78.0821 69.9101C81.0359 68.5725 81.8441 66.1482 81.8441 66.1482C82.1227 65.563 81.4261 59.711 77.4969 57.6768C76.6331 57.6489 74.2366 57.7325 72.7596 59.1816C70.9483 60.965 70.2238 64.504 71.1434 66.9563C71.0598 66.8448 69.5271 65.758 68.8026 64.504Z" fill="url(#paint1_linear_786_6958)"/>
<path d="M72.75 57.3194L69.0602 53.8031L67.2768 61.1598C67.2768 61.1598 68.1685 63.3613 68.8373 64.5595C68.8651 64.5317 68.7651 59.0193 72.75 57.3194Z" fill="url(#paint2_linear_786_6958)"/>
<path d="M68.8013 64.5483C69.5318 65.8095 71.0491 66.9307 71.1615 66.9867C70.2342 64.5202 70.9648 60.9607 72.7911 59.1669C74.2803 57.7094 76.918 57.72 77.7891 57.748C76.918 57.2995 75.6852 56.9246 74.477 56.9246C70.0095 56.9807 68.5203 61.1288 68.8013 64.5483Z" fill="#E8F4FC"/>
<path d="M74.2976 61.1321C74.5763 61.0764 74.9385 61.0764 75.3565 61.1879C75.3565 61.1879 75.2729 57.9275 78.2546 59.1536C78.2546 59.1536 78.5054 58.4848 79.2578 58.234C79.0627 58.039 78.171 57.2866 77.2793 57.3702C76.081 57.3702 73.8796 59.0143 74.2976 61.1321Z" fill="url(#paint3_linear_786_6958)"/>
<path d="M75.2834 47.2557C76.0352 45.2561 78.0731 44.0453 80.1888 44.3411L83.8746 44.8565C86.8687 45.2752 88.6363 48.4359 87.4255 51.2061L82.7692 61.8593C81.9685 63.6911 80.0692 64.7889 78.0823 64.5683L74.983 64.2242C72.0234 63.8956 70.1656 60.8674 71.2135 58.0802L75.2834 47.2557Z" fill="#3063A8"/>
<path d="M76.4841 48.2572C77.2341 46.2356 79.2964 45.0144 81.4296 45.3287L84.6855 45.8083C87.5356 46.2282 89.289 49.1506 88.3184 51.863L84.4905 62.5595C83.7778 64.551 81.7905 65.7921 79.6882 65.5586L76.2555 65.1774C73.3043 64.8496 71.4465 61.8361 72.4793 59.0521L76.4841 48.2572Z" fill="#18437D"/>
<path d="M76.6311 58.9914C78.6094 60.4503 79.0422 59.5972 81.4779 56.4318C83.3827 53.9564 86.1161 54.1425 87.3506 54.5744L84.4762 62.5669C83.7613 64.5547 81.7759 65.7925 79.6764 65.5593L76.2513 65.1788C73.2943 64.8504 71.4365 61.8265 72.4801 59.0403L72.5161 58.9442C73.2455 58.4619 75.0484 57.8242 76.6311 58.9914Z" fill="#235394"/>
<ellipse cx="86.8471" cy="48.3741" rx="1.25514" ry="1.11909" transform="rotate(-7.71127 86.8471 48.3741)" fill="#A0A4A8"/>
<ellipse cx="0.934872" cy="0.833534" rx="0.934872" ry="0.833534" transform="matrix(0.990957 -0.134181 0.134182 0.990957 85.8047 47.6735)" fill="#25282B"/>
<ellipse cx="0.338208" cy="0.254548" rx="0.338208" ry="0.254548" transform="matrix(0.993888 0.110389 -0.110393 0.993888 85.9297 49.7599)" fill="#C4C4C4"/>
<path d="M75.9634 68.8231C79.2237 69.464 81.8432 66.0643 81.8432 66.0643C82.6792 65.7856 83.3201 65.0611 83.6266 64.3644C84.4905 61.8843 81.3137 58.1781 80.0597 58.1224C79.7532 58.1224 79.4745 58.1502 79.2516 58.2338C78.4992 58.4846 78.2484 59.1534 78.2484 59.1534C75.2667 57.9273 75.3503 61.1877 75.3503 61.1877C74.9323 61.0762 74.5979 61.0762 74.2914 61.1319C72.9259 61.4663 72.8423 63.3891 72.8423 63.3891C70.2786 66.3151 74.6536 68.7395 75.9634 68.8231Z" fill="url(#paint4_linear_786_6958)"/>
<path d="M60.0902 80.4609C58.3139 81.0682 56.5799 82.0336 55.7271 83.5631C54.1959 86.3394 54.4806 89.394 54.7683 90.8685C53.7917 90.4322 52.5258 89.8378 51.1823 89.1907C51.1552 87.5219 51.7233 83.6264 56.5103 78.5735C57.3296 78.9554 58.5032 79.5588 60.0902 80.4609Z" fill="url(#paint5_linear_786_6958)"/>
<path d="M66.2856 85.0196C65.9199 84.8929 65.5295 84.8509 65.1442 84.8971C64.7588 84.9432 64.3887 85.0762 64.0619 85.2859C61.7465 86.7425 60.6405 91.2236 60.5459 93.1092C58.788 92.9476 57.2759 91.9931 56.2876 91.5559C56.2106 89.9721 56.2382 88.3843 56.3701 86.8029C56.6531 82.5629 60.2792 81.6436 61.8141 81.4468C62.2169 81.6769 62.6508 81.9281 63.0905 82.1938C64.3527 82.8897 65.4436 83.8545 66.2856 85.0196V85.0196Z" fill="url(#paint6_linear_786_6958)"/>
<path d="M56.5184 78.5698C51.7217 83.6267 51.1516 87.5173 51.1904 89.187C49.0392 88.1589 46.7094 87.0233 45.2698 86.3196L45.3087 86.304C39.4162 83.5544 46.5319 79.3481 49.1862 77.4389C50.5735 76.4392 54.0932 77.51 56.0408 78.3362L56.5184 78.5698Z" fill="url(#paint7_linear_786_6958)"/>
<path d="M61.8194 81.4464C60.2845 81.6431 56.6584 82.5625 56.3754 86.8025C56.2435 88.3839 56.2159 89.9716 56.2929 91.5554C56.2596 91.5365 56.2236 91.5226 56.1861 91.5143C55.8958 91.3958 55.2264 91.1429 54.6139 90.8403C54.3262 89.3658 54.0445 86.3212 55.5758 83.5449C56.4285 82.0154 58.3454 81.0729 60.1218 80.4656C60.6304 80.7483 61.2031 81.0781 61.8194 81.4464Z" fill="#142B4E"/>
<path d="M65.1418 91.229C63.5526 92.8921 62.0078 93.2608 60.5471 93.1086C60.6417 91.223 61.7476 86.7419 64.0631 85.2853C64.3898 85.0756 64.76 84.9426 65.1453 84.8965C65.5307 84.8503 65.9211 84.8923 66.2868 85.019C67.9524 87.5636 66.4945 89.8905 65.1418 91.229Z" fill="url(#paint8_linear_786_6958)"/>
<path d="M46.6864 84.5416C44.7598 84.6843 42.9328 85.4566 41.4871 86.7393C39.5727 88.5618 39.1643 92.0717 39.0902 93.6312C38.1004 92.9237 37.0712 92.1815 36.0946 91.4756C36.0474 91.433 35.9958 91.3956 35.9406 91.364C36.2241 90.0697 37.5638 85.8963 43.4469 82.0164C43.4789 82.0569 43.5426 82.0844 43.5819 82.1191C44.7783 82.9744 45.8099 83.7804 46.6864 84.5416Z" fill="url(#paint9_linear_786_6958)"/>
<path d="M43.4495 82.0158C37.5693 85.8993 36.2267 90.069 35.9432 91.3633C34.0267 89.9524 32.3447 88.6792 31.5907 88.1263C27.4031 85.0551 26.993 81.1158 28.9627 79.3632C30.0169 78.4232 39.731 81.0529 40.6754 80.1936C41.7054 80.8155 42.6196 81.4272 43.4495 82.0158Z" fill="url(#paint10_linear_786_6958)"/>
<path d="M51.5821 90.4093C50.5868 89.8617 49.0532 89.4818 47.4568 91.161C45.9356 92.8222 44.8825 94.8569 44.4051 97.057C43.06 96.343 41.7665 95.536 40.534 94.6419C40.6446 93.3107 40.9738 90.5271 41.859 89.0089C42.9857 87.0609 44.7135 85.4873 48.3094 86.0446C50.3245 88.0355 51.2075 89.533 51.5821 90.4093Z" fill="url(#paint11_linear_786_6958)"/>
<path d="M51.5879 90.4088C51.7176 90.6784 51.812 90.9636 51.8688 91.2574C51.7193 95.4897 46.7368 97.9468 44.4915 97.0826L44.3985 97.0483C44.8759 94.8482 45.929 92.8135 47.4502 91.1524C49.048 89.4901 50.5809 89.8464 51.5879 90.4088Z" fill="url(#paint12_linear_786_6958)"/>
<path d="M48.311 86.0443C44.715 85.487 42.9873 87.0606 41.8606 89.0086C40.9754 90.5268 40.6462 93.3104 40.5356 94.6416C40.0691 94.3162 39.591 93.9761 39.0967 93.6308C39.1708 92.0713 39.5793 88.5615 41.4937 86.7389C42.9394 85.4562 44.7664 84.684 46.6929 84.5412C47.3045 85.0629 47.8439 85.564 48.311 86.0443Z" fill="#142B4E"/>
<path d="M66.2162 74.0706L65.0797 77.3035C64.9312 77.7224 64.7579 78.1322 64.5608 78.5306C64.4034 78.8415 64.2487 79.1254 64.0822 79.3901C63.9709 79.5778 63.8472 79.758 63.7121 79.9294C63.5951 80.087 63.4639 80.2335 63.32 80.3669C62.698 80.9768 61.825 81.3675 60.3657 81.5831C57.5749 81.9931 54.7584 82.2045 51.9375 82.2157L51.9015 82.2122L51.7532 82.1977C51.5554 82.1784 51.2998 82.1943 51.0014 82.1833C49.7132 82.18 47.5506 82.164 45.0018 82.1058C43.7755 82.0723 42.449 82.0426 41.0973 81.9924C38.557 81.8942 35.875 81.7595 33.427 81.5525C31.4198 81.384 29.5573 81.1752 28.0463 80.8965L27.9654 80.8886L26.838 80.679C26.44 80.5722 26.1366 80.52 25.8983 80.4514C25.244 80.2744 25.0331 80.0182 24.5656 78.5771C22.6952 72.3497 21.1381 66.0328 19.9003 59.65C18.5785 52.453 14.2108 32.8935 14.7379 25.3467C15.0559 23.9006 15.3994 22.2396 22.2676 19.7377C29.1358 17.2358 47.4451 14.1459 64.7731 19.3515C66.644 19.987 68.9059 21.3583 69.532 22.9871C69.604 23.1422 69.6521 23.3073 69.6748 23.4767C69.9457 25.3517 70.1768 42.6186 69.2495 51.105C69.1958 51.562 68.0315 68.2487 66.2162 74.0706Z" fill="url(#paint13_linear_786_6958)"/>
<path d="M53.459 28.2919C45.8492 27.6707 38.1892 28.2046 30.7392 29.8756C30.7189 28.4467 30.703 27.017 30.6918 25.5865C30.6903 25.3199 30.7866 25.0621 30.9624 24.8618C31.1438 24.6536 31.3902 24.5126 31.6616 24.4618C39.6539 22.8914 47.8374 22.5355 55.9358 23.4062C55.4981 24.7819 55.0692 26.1593 54.6492 27.5384C54.5739 27.7798 54.4159 27.9869 54.2031 28.1235C53.9805 28.2605 53.7188 28.3197 53.459 28.2919V28.2919Z" fill="#0F6EB5"/>
<path d="M53.459 28.2919C45.8492 27.6707 38.1892 28.2046 30.7392 29.8756C30.7189 28.4467 30.703 27.017 30.6918 25.5865C30.6903 25.3199 30.7866 25.0621 30.9624 24.8618C31.1438 24.6536 31.3902 24.5126 31.6616 24.4618C39.6539 22.8914 47.8374 22.5355 55.9358 23.4062C55.4981 24.7819 55.0692 26.1593 54.6492 27.5384C54.5739 27.7798 54.4159 27.9869 54.2031 28.1235C53.9805 28.2605 53.7188 28.3197 53.459 28.2919V28.2919Z" fill="#0F6EB5"/>
<path d="M40.2556 23.2421C37.3688 23.4925 34.4979 23.8996 31.6553 24.4617C31.3839 24.5126 31.1375 24.6535 30.9561 24.8617C30.7803 25.0621 30.684 25.3199 30.6855 25.5864C30.6923 27.0166 30.7081 28.4464 30.7329 29.8756C31.4797 29.7017 32.231 29.5439 32.9868 29.402C33.2723 29.3487 33.5432 29.2353 33.7815 29.0694C34.0199 28.9035 34.2202 28.6888 34.3693 28.4395C35.1111 27.2076 35.8878 25.9892 36.6995 24.7844L36.9945 24.347C37.1771 24.084 37.4157 23.8647 37.6932 23.705C37.9785 23.5413 38.2944 23.4379 38.6212 23.401C39.1663 23.3436 39.7112 23.2895 40.2589 23.2423L40.2556 23.2421Z" fill="#EA2036"/>
<path fill-rule="evenodd" clip-rule="evenodd" d="M38.7982 24.8915C38.5376 24.9177 38.2734 24.947 38.0124 24.9798C37.9696 25.6156 37.9265 26.2548 37.8838 26.8906L38.3445 26.8376C38.3587 26.6268 38.3731 26.4126 38.3873 26.2018L38.7258 26.1674C39.1898 26.1146 39.4845 25.8823 39.5242 25.4413C39.564 25.0002 39.2524 24.8347 38.7982 24.8915ZM38.7128 25.7598L38.6727 25.7571L38.4186 25.787C38.4291 25.6298 38.4411 25.4524 38.4505 25.3119L38.7453 25.2779C38.8908 25.2642 39.0331 25.2973 39.0169 25.4878C39.0007 25.6783 38.8079 25.746 38.7162 25.76L38.7128 25.7598Z" fill="white"/>
<path fill-rule="evenodd" clip-rule="evenodd" d="M40.2543 25.1684L40.2318 25.5031L41.0366 25.4329C41.0271 25.5734 41.0177 25.714 40.9915 25.8534L40.19 25.9238L40.1675 26.2585L40.9926 26.1863C40.9831 26.3268 40.9737 26.4673 40.9475 26.6068C40.5182 26.6417 40.0921 26.6803 39.6623 26.722L39.8414 24.8112C40.2778 24.77 40.7173 24.7323 41.1566 24.698L41.108 25.1217L40.2543 25.1684Z" fill="white"/>
<path fill-rule="evenodd" clip-rule="evenodd" d="M42.4585 25.7229C42.5942 25.6933 42.7174 25.6222 42.8111 25.5195C42.9047 25.4168 42.9641 25.2876 42.9811 25.1497C43.0351 24.7466 42.7842 24.5784 42.423 24.6011C42.1258 24.6215 41.8289 24.6385 41.5348 24.6624C41.4586 25.2959 41.389 25.93 41.3159 26.5671L41.7822 26.5312C41.7986 26.287 41.8385 26.0442 41.8683 25.8009L41.9486 25.8063L42.1051 26.0286L42.4267 26.4939L43.0004 26.462L42.4585 25.7229ZM42.1804 25.4588L42.1269 25.4552L41.9073 25.4707C41.9179 25.3134 41.9285 25.1561 41.9661 24.9973L42.2396 24.9787C42.3768 24.988 42.5107 24.997 42.4838 25.1969C42.4569 25.3967 42.3199 25.4346 42.1809 25.4521L42.1804 25.4588Z" fill="white"/>
<path fill-rule="evenodd" clip-rule="evenodd" d="M43.999 26.391L43.5338 26.4101L43.7443 24.9318L43.1945 24.9586L43.253 24.539C43.7793 24.5106 44.3085 24.489 44.8373 24.4742C44.8278 24.6148 44.7916 24.7535 44.7721 24.8934L44.2195 24.9133L43.999 26.391Z" fill="white"/>
<path fill-rule="evenodd" clip-rule="evenodd" d="M45.92 24.4494L45.3984 24.458C45.0553 25.0938 44.721 25.7324 44.3954 26.3738L44.8941 26.357L45.0672 26.0325L45.7169 26.019C45.7364 26.1279 45.756 26.2368 45.778 26.3593L46.2762 26.3491C46.1625 25.7073 46.0438 25.074 45.92 24.4494ZM45.258 25.6453C45.3556 25.4434 45.4532 25.2416 45.5542 25.04C45.5844 25.2403 45.6182 25.4376 45.6484 25.6379L45.258 25.6453Z" fill="white"/>
<path fill-rule="evenodd" clip-rule="evenodd" d="M47.0695 24.4365L47.5436 24.4348C47.6048 24.7751 47.6625 25.1151 47.7203 25.4552C47.9135 25.132 48.1016 24.785 48.3155 24.4532L48.7956 24.462L48.6691 26.3426L48.199 26.3345C48.2233 25.9731 48.2474 25.615 48.2718 25.2536C48.0527 25.612 47.8336 25.9704 47.6212 26.3292L47.4371 26.3169C47.3673 25.9558 47.2941 25.5946 47.2243 25.2336C47.1025 25.5951 46.984 25.9569 46.8655 26.3187L46.4113 26.3251C46.6285 25.6943 46.848 25.0648 47.0695 24.4365Z" fill="white"/>
<path fill-rule="evenodd" clip-rule="evenodd" d="M49.4537 26.3523C49.2976 26.3418 49.1398 26.3379 48.9805 26.3406C49.1124 25.7131 49.2475 25.0879 49.3858 24.4653L49.8657 24.4774C49.7294 25.1036 49.59 25.7262 49.4537 26.3523Z" fill="white"/>
<path fill-rule="evenodd" clip-rule="evenodd" d="M50.3 24.4925L50.7819 24.5249C50.9874 24.9186 51.1893 25.3154 51.3746 25.7078L51.6531 24.5668L52.1383 24.5994C51.9822 25.2209 51.8263 25.839 51.6769 26.4609L51.2017 26.4289C51.0065 26.0326 50.8078 25.6393 50.609 25.2461C50.5195 25.6267 50.4301 26.0072 50.3437 26.3914L49.8719 26.3596C50.0144 25.7406 50.1573 25.1149 50.3 24.4925Z" fill="white"/>
<path fill-rule="evenodd" clip-rule="evenodd" d="M53.6442 24.6873L53.1121 24.6515C52.712 25.2532 52.3151 25.8551 51.9281 26.461L52.4267 26.4946L52.6366 26.1725L53.3059 26.2176L53.3336 26.5556L53.8389 26.5896C53.7761 25.9579 53.7112 25.3238 53.6442 24.6873ZM52.8655 25.8182C52.9828 25.6244 53.0998 25.4339 53.2202 25.2437C53.2337 25.4429 53.2469 25.6455 53.2569 25.8479L52.8655 25.8182Z" fill="white"/>
<path d="M33.5992 25.5802C33.4285 25.8679 33.2579 26.1556 33.0906 26.4436L32.6283 25.7704C32.5699 25.6926 32.49 25.6336 32.3984 25.6005C32.3069 25.5675 32.2077 25.5619 32.1131 25.5844L31.7282 25.6594C31.7205 26.5732 31.713 27.4837 31.7086 28.3977L31.7871 28.3795C31.9556 28.3393 32.1065 28.2456 32.2173 28.1125C32.328 27.9793 32.3927 27.8139 32.4016 27.641L32.4142 26.7039C32.5807 26.9269 32.7437 27.153 32.9068 27.3758C32.9259 27.4027 32.9527 27.4232 32.9836 27.4347C33.0145 27.4469 33.0484 27.4491 33.0806 27.4413C33.1136 27.4353 33.1446 27.4212 33.1708 27.4003C33.1977 27.3816 33.2209 27.3581 33.2393 27.3309C33.4135 27.0401 33.5908 26.7529 33.7715 26.4658C33.7538 26.979 33.736 27.4921 33.7217 28.0054L33.7986 28.0106C33.9678 27.9738 34.1208 27.8836 34.2348 27.7532C34.3489 27.6229 34.4181 27.4594 34.4323 27.2868L34.5242 25.1719L34.1435 25.2337C34.0304 25.2527 33.9223 25.2946 33.826 25.3568C33.7364 25.4156 33.6593 25.4915 33.5992 25.5802Z" fill="white"/>
<path d="M37.7595 25.0039L37.3325 25.0559C37.203 25.0707 37.0784 25.114 36.9676 25.1826C36.8598 25.2494 36.7687 25.3398 36.701 25.447C36.5362 25.6981 36.3714 25.9492 36.2131 26.2041L36.0099 26.5266L35.6323 25.8928C35.5798 25.8114 35.5041 25.7477 35.4149 25.7099C35.3257 25.6721 35.2272 25.6621 35.1323 25.681L34.6463 25.7592C34.9643 26.2288 35.2751 26.7046 35.5789 27.1867L35.2329 27.7316C35.1917 27.7978 35.164 27.8716 35.1513 27.9486C35.1386 28.0256 35.1412 28.1044 35.159 28.1804C35.2021 28.3295 35.3006 28.4564 35.4343 28.5351C35.5851 28.2931 35.736 28.0478 35.8937 27.8029L35.939 27.7287C36.4538 26.9229 36.982 26.1181 37.5293 25.328L37.7595 25.0039Z" fill="white"/>
<path d="M27.2413 59.9358C28.3392 64.6825 29.8059 71.9298 32.412 75.2151C33.6072 76.0792 47.9275 77.5118 56.9385 76.5328C58.4113 76.3185 59.3069 76.1611 59.9762 75.7642C60.8224 75.2759 61.296 74.4204 62.0612 72.6691C62.9526 70.2278 65.6572 59.4272 65.5635 41.4035C65.5635 41.4035 65.6483 37.2298 65.1244 35.6699C64.6004 34.1101 63.9392 32.7951 59.3773 31.9788C54.8153 31.1624 37.8744 30.8743 28.8269 33.5307C25.9102 34.3609 24.1317 35.3836 24.1621 36.7005C24.2105 38.0192 24.9874 49.7346 27.2413 59.9358Z" fill="url(#paint14_linear_786_6958)"/>
<path d="M19.858 59.6505C21.0985 66.0338 22.6586 72.351 24.5323 78.5785C25.1652 80.5567 25.3186 80.2863 26.8091 80.6808L27.9361 80.8949C16.887 47.5897 17.0028 24.6252 17.0504 23.9049C17.0979 23.1846 17.1774 23.3464 18.8322 22.8009C47.7892 14.3245 69.5427 23.0018 69.5427 23.0018C68.9265 21.365 66.6592 20.0021 64.7884 19.3666C47.4594 14.1701 29.1888 17.2818 22.303 19.7775C15.4173 22.2731 15.0769 23.9027 14.7635 25.3492C14.2318 32.8956 18.5995 52.4552 19.858 59.6505Z" fill="url(#paint15_linear_786_6958)"/>
<path d="M24.1639 36.687C27.506 35.3093 36.2109 33.6072 44.6955 33.5601C54.3689 33.5111 63.9448 33.0674 63.7359 39.8161C64.3892 51.9238 63.1203 64.058 59.9762 75.7687C60.8224 75.2803 61.296 74.4249 62.0612 72.6735C62.9525 70.2322 65.6572 59.4317 65.5635 41.4079C65.5635 41.4079 65.6483 37.2343 65.1244 35.6744C64.6004 34.1145 63.9392 32.7996 59.3772 31.9832C54.8153 31.1669 37.8744 30.8788 28.8269 33.5352C25.9124 34.3429 24.1339 35.3656 24.1639 36.687Z" fill="#18437D"/>
<path fill-rule="evenodd" clip-rule="evenodd" d="M37.5782 51.2547C37.3608 50.9749 36.958 50.6497 36.0161 50.6351C35.5364 50.6277 35.1699 50.9282 34.8816 51.7571C34.7487 52.1392 34.6738 52.5386 34.6333 52.8536C34.6135 53.0082 34.6027 53.1356 34.5971 53.2215C34.5942 53.2643 34.5927 53.2963 34.5919 53.3157L34.5912 53.335C34.5912 53.3358 34.5911 53.3364 34.5911 53.3367C34.5911 53.3367 34.5911 53.3367 34.5911 53.3367C34.577 53.9836 34.0421 54.4973 33.3948 54.4848C32.7466 54.4723 32.2313 53.9366 32.2439 53.2884L33.3819 53.3104C32.2439 53.2884 32.2439 53.288 32.2439 53.2876L32.2439 53.2847L32.2441 53.2795L32.2445 53.2649C32.2448 53.2533 32.2453 53.238 32.2461 53.2192C32.2476 53.1817 32.2502 53.1302 32.2544 53.0667C32.2628 52.94 32.2778 52.7639 32.3047 52.5545C32.3577 52.1415 32.4605 51.5711 32.6641 50.9858C33.0488 49.88 33.9906 48.2556 36.0525 48.2876C37.652 48.3124 38.7453 48.9305 39.4319 49.8138C40.0681 50.6323 40.2623 51.5665 40.3534 52.0485C40.4738 52.6856 40.055 53.2996 39.4179 53.42C38.7809 53.5404 38.1669 53.1215 38.0465 52.4845C37.964 52.0479 37.8461 51.5992 37.5782 51.2547Z" fill="white"/>
<path fill-rule="evenodd" clip-rule="evenodd" d="M58.5747 49.1256C58.3766 48.9872 58.1743 48.928 57.8791 48.9974C57.1742 49.1633 56.7557 49.7302 56.5081 50.5395C56.389 50.929 56.3316 51.3147 56.3053 51.609C56.2924 51.754 56.2874 51.8714 56.2856 51.9491C56.2847 51.9878 56.2846 52.0163 56.2847 52.033L56.2848 52.0488L56.2848 52.0482L56.2848 52.0463C56.3026 52.694 55.7921 53.2337 55.1443 53.2519C54.4963 53.2701 53.9561 52.7595 53.9379 52.1115L55.1113 52.0785C53.9379 52.1115 53.9379 52.111 53.9379 52.1106L53.9379 52.1096L53.9378 52.1075L53.9377 52.1021L53.9374 52.0874C53.9372 52.0759 53.937 52.0608 53.937 52.0426C53.9368 52.006 53.9371 51.9563 53.9385 51.895C53.9413 51.7728 53.9487 51.6033 53.9669 51.4001C54.0028 50.998 54.0826 50.4425 54.2631 49.8526C54.6148 48.7029 55.4458 47.158 57.3414 46.712C58.3464 46.4756 59.2259 46.7166 59.9191 47.2008C60.572 47.6569 61.0286 48.3028 61.3417 48.8746C61.6609 49.4576 61.8761 50.0474 62.0105 50.4797C62.0786 50.6987 62.1281 50.8843 62.1612 51.0178C62.1777 51.0847 62.1902 51.1389 62.199 51.1782C62.2034 51.1978 62.2068 51.2138 62.2093 51.2257L62.2124 51.2406L62.2135 51.2457L62.2141 51.2485C62.2141 51.2489 62.2142 51.2493 61.0634 51.4808M56.2849 52.0496C56.2849 52.0498 56.2849 52.0499 56.2849 52.0496Z" fill="white"/>
<path d="M44.9244 53.364C46.2592 53.1226 49.2397 52.6611 50.7918 53.0299C51.4657 53.517 51.5823 57.7647 48.7394 58.4435C46.1565 59.0616 44.1334 56.916 44.1751 54.3013C44.1749 54.0833 44.249 53.8718 44.3852 53.7014C44.5214 53.5311 44.7115 53.4121 44.9244 53.364V53.364Z" fill="white"/>
<path d="M23.4536 61.8676C22.9432 63.5458 22.317 65.1867 21.5796 66.7784C21.5796 66.7784 19.9313 66.2824 18.2921 65.5834C18.9243 64.5282 21.0738 60.9522 21.0738 60.7583C21.0738 60.5644 19.0507 59.8204 18.125 59.4776C18.7572 58.8148 19.2314 58.3503 19.2314 58.3503C20.3739 58.1338 20.83 58.215 22.0718 58.5893C23.3136 58.9636 23.8555 60.145 23.4536 61.8676Z" fill="url(#paint16_linear_786_6958)"/>
<path d="M21.077 60.772C21.077 60.9659 18.9275 64.5419 18.2953 65.5971C16.4619 64.8215 14.6556 63.7933 15.2472 62.8914C16.1209 61.6919 17.084 60.5598 18.1282 59.5048C19.054 59.8205 21.0454 60.6187 21.077 60.772Z" fill="#006FB8"/>
<path d="M21.9888 68.5286C21.6953 72.5871 20.5302 77.1416 17.0215 78.4494C15.9693 78.9003 10.9568 78.3907 7.93578 74.3503C7.55559 73.7509 7.36079 73.0529 7.37581 72.3436C9.4937 73.507 14.1495 75.7031 17.0215 73.8587C20.5076 71.604 20.5076 66.8916 20.1599 64.8398C21.2979 65.7913 22.0972 67.045 21.9888 68.5286Z" fill="url(#paint17_linear_786_6958)"/>
<path d="M7.91901 73.8491C7.91901 73.8491 6.74943 78.5886 10.1769 80.3427C10.1769 80.3427 10.5878 81.894 11.7032 82.1465C12.8186 82.399 14.1372 81.9977 14.6926 79.9504C14.6926 79.9504 16.5938 80.2706 17.0363 78.4262C17.0363 78.4307 12.2857 78.548 7.91901 73.8491Z" fill="url(#paint18_linear_786_6958)"/>
<path d="M17.0363 73.849C14.1868 75.6933 9.50851 73.4972 7.39062 72.3338C7.4121 71.1689 7.75594 70.0327 8.3841 69.0509C10.3304 65.741 13.3108 63.3149 14.5526 62.7377C15.3338 62.3634 18.242 63.1886 20.1747 64.8391C20.5224 66.8729 20.5224 71.5942 17.0363 73.849Z" fill="url(#paint19_linear_786_6958)"/>
<path d="M19.2382 67.2159C18.8568 66.8092 18.4384 66.4342 18.0251 66.0853C17.727 65.8336 17.4209 65.5864 17.0939 65.3742C16.9169 65.2595 16.4454 64.8881 16.2573 65.1418C16.1893 65.233 16.2754 65.4536 16.3077 65.5437C16.3745 65.7322 17.1097 67.2513 16.5598 67.5629C14.8554 68.5288 13.2433 70.2535 13.5655 72.4081C13.7479 73.6332 14.7228 75.2961 16.1584 75.1905C17.7475 75.0724 19.1462 73.9677 20.0181 72.717C20.5373 71.9722 20.8488 71.0794 20.7516 70.1389C20.6334 68.9986 20.0121 68.0416 19.2382 67.2159Z" fill="url(#paint20_linear_786_6958)"/>
<path d="M18.9873 67.1298C18.6128 66.7312 18.2007 66.3651 17.7932 66.0249C17.4993 65.7794 17.1973 65.5387 16.8736 65.3333C16.6984 65.2223 16.2331 64.8608 16.0394 65.1177C15.9695 65.2101 16.0515 65.4286 16.0821 65.5179C16.1453 65.7048 16.8525 67.2067 16.2951 67.5285C14.5673 68.526 12.917 70.2792 13.1977 72.4236C13.3565 73.6429 14.3011 75.2838 15.7425 75.1503C17.338 75.0012 18.7621 73.8712 19.6608 72.6056C20.196 71.852 20.5259 70.9547 20.447 70.0178C20.3509 68.8819 19.7469 67.9388 18.9873 67.1298Z" fill="url(#paint21_linear_786_6958)"/>
<path d="M15.1431 74.8472L15.7532 74.3608L13.4744 71.5196L13.1763 71.7572C13.1637 71.9831 13.1723 72.2097 13.202 72.4343C13.2172 72.5473 13.238 72.6596 13.2645 72.7706L13.3694 72.6339L15.1431 74.8472Z" fill="white"/>
<path d="M14.2799 71.7677L13.8529 71.2345L15.7525 69.7177L16.1277 70.1863L15.9635 71.4365C16.4012 71.1929 16.9313 71.1007 17.3551 71.6299C17.7853 72.1671 17.713 72.867 17.0869 73.3669C16.5808 73.7711 16.0698 73.8481 15.5991 73.7537L15.6982 73.0058C16.0658 73.0698 16.3634 73.0309 16.6486 72.8031C16.8816 72.6171 16.9393 72.3523 16.768 72.1383C16.5803 71.904 16.2801 71.932 15.9268 72.2142L15.6705 72.4188L15.2569 72.0999L15.3842 70.8858L14.2799 71.7677Z" fill="white"/>
<path d="M16.1366 69.4037L17.8636 68.0247L18.3003 68.5701L17.1035 69.5258L17.4628 70.0401C17.5568 69.911 17.668 69.7955 17.7934 69.6966C18.3475 69.2541 18.9908 69.1774 19.5051 69.8197C19.987 70.4215 19.87 71.1374 19.2227 71.6543C18.7729 72.0135 18.3144 72.115 17.8311 72.0714L17.8455 71.3248C18.2139 71.3488 18.5124 71.2956 18.7622 71.0961C19.0513 70.8653 19.119 70.5798 18.9151 70.3252C18.7173 70.0782 18.4075 70.0942 18.1062 70.3348C17.9296 70.4758 17.8077 70.6527 17.7205 70.8149L17.1722 70.8614L16.1366 69.4037Z" fill="white"/>
<path d="M11.584 70.1459C11.5536 70.1384 11.522 70.138 11.4916 70.1449C11.4612 70.1517 11.4328 70.1656 11.4088 70.1854C11.3211 70.2554 11.3159 70.3707 11.385 70.4569C11.4 70.4778 11.4192 70.4953 11.4414 70.5083C11.4635 70.5213 11.4881 70.5296 11.5136 70.5326C11.5391 70.5355 11.5648 70.5332 11.5892 70.5256C11.6137 70.518 11.6362 70.5054 11.6554 70.4886C11.6787 70.4694 11.6977 70.4454 11.7109 70.4181C11.7241 70.3909 11.7313 70.3611 11.7321 70.3308L11.8708 70.504C11.8424 70.5518 11.8065 70.5947 11.7646 70.6311C11.6875 70.6922 11.5902 70.7221 11.4917 70.7148C11.4415 70.7116 11.3925 70.6974 11.3482 70.6734C11.3038 70.6493 11.2652 70.616 11.235 70.5756C11.1738 70.5 11.1445 70.4037 11.1533 70.3073C11.1634 70.2062 11.2133 70.1134 11.2919 70.0494C11.3373 70.0138 11.3896 69.9876 11.4454 69.9725L11.584 70.1459Z" fill="#0D71B3"/>
<path d="M12.0348 70.2323L12.0741 70.3593L11.9216 70.4812L11.6891 69.7552L11.8459 69.6299L12.4991 70.0197L12.3459 70.1421L12.2335 70.0736L12.0348 70.2323ZM11.9057 69.8638L11.9043 69.865L11.9863 70.089L12.1056 69.9936L11.9057 69.8638Z" fill="#0D71B3"/>
<path d="M12.5843 69.7441L12.7564 69.6068L12.8543 69.729L12.5386 69.9809L12.0938 69.4257L12.2374 69.3111L12.5843 69.7441Z" fill="#0D71B3"/>
<path d="M12.9515 69.4528L13.1236 69.3155L13.2215 69.4377L12.9058 69.6897L12.4609 69.1345L12.6046 69.0198L12.9515 69.4528Z" fill="#0D71B3"/>
<path d="M13.6145 68.5118C13.5842 68.5042 13.5526 68.5038 13.5222 68.5106C13.4918 68.5174 13.4635 68.5313 13.4395 68.5511C13.3518 68.6212 13.3464 68.7365 13.4155 68.8228C13.4306 68.8436 13.4498 68.8611 13.472 68.8741C13.4941 68.8871 13.5187 68.8953 13.5441 68.8983C13.5696 68.9013 13.5954 68.8989 13.6198 68.8914C13.6442 68.8838 13.6667 68.8713 13.6859 68.8545C13.7093 68.8353 13.7283 68.8113 13.7415 68.784C13.7547 68.7568 13.7619 68.727 13.7626 68.6967L13.9013 68.8699C13.873 68.9176 13.8372 68.9605 13.7953 68.9968C13.7184 69.0576 13.6213 69.0873 13.5231 69.08C13.4729 69.0767 13.4239 69.0626 13.3795 69.0386C13.3352 69.0146 13.2965 68.9813 13.2662 68.9409C13.2051 68.8652 13.1759 68.7689 13.1847 68.6725C13.1949 68.5713 13.2447 68.4786 13.3233 68.4146C13.3687 68.3789 13.4208 68.3528 13.4767 68.3378L13.6145 68.5118Z" fill="#0D71B3"/>
<path d="M13.804 68.2585L13.8781 68.3509L14.04 68.2217L14.1388 68.3451L13.9769 68.4743L14.0536 68.5701L14.2241 68.434L14.322 68.5562L14.0079 68.8069L13.5625 68.251L13.8766 68.0003L13.9745 68.1224L13.804 68.2585Z" fill="#0D71B3"/>
<path d="M13.9609 67.9263L14.1046 67.8114L14.64 67.9412L14.6416 67.94L14.3694 67.5999L14.513 67.4852L14.958 68.0413L14.8144 68.1559L14.2786 68.0256L14.2772 68.0267L14.5498 68.3674L14.4061 68.4822L13.9609 67.9263Z" fill="#0D71B3"/>
<path d="M15.2775 67.7879L15.1338 67.9026L14.7868 67.4694L14.6682 67.5641L14.5703 67.4418L14.9513 67.1376L15.0492 67.2599L14.9305 67.3547L15.2775 67.7879Z" fill="#0D71B3"/>
<path d="M15.2415 67.1017L15.3156 67.194L15.4775 67.0648L15.5763 67.1883L15.4144 67.3175L15.4911 67.4132L15.6611 67.2776L15.759 67.3997L15.4454 67.65L15 67.0941L15.3136 66.8438L15.4115 66.966L15.2415 67.1017Z" fill="#0D71B3"/>
<path d="M16.3105 66.9575L16.1317 67.1003L15.8252 66.9948L15.8236 66.996L15.9947 67.2098L15.8512 67.3244L15.4062 66.7686L15.6208 66.5972C15.7301 66.5099 15.8553 66.4967 15.9498 66.6148C16.0112 66.6914 16.0217 66.7918 15.9545 66.8686L16.3105 66.9575ZM15.7493 66.9032L15.7633 66.892C15.8102 66.8546 15.8559 66.8036 15.8074 66.743C15.759 66.6825 15.6994 66.7159 15.6524 66.7534L15.6384 66.7647L15.7493 66.9032Z" fill="#0D71B3"/>
<path d="M10.4922 69.4517L10.7276 69.2637C10.8548 69.1621 10.9902 69.1512 11.0995 69.2878C11.2126 69.429 11.1859 69.5501 11.0517 69.6573L10.9639 69.7273L11.122 69.9248L10.9689 70.0471L10.4922 69.4517ZM10.8648 69.602L10.8905 69.5814C10.9463 69.5369 11.0012 69.493 10.9432 69.4205C10.8851 69.348 10.8314 69.3854 10.7717 69.433L10.7459 69.4536L10.8648 69.602Z" fill="#221F1F"/>
<path d="M11.2744 69.0439L11.3541 69.1433L11.5274 69.005L11.6322 69.1358L11.4589 69.2741L11.5411 69.3768L11.7239 69.2309L11.8288 69.3619L11.4922 69.6305L11.0156 69.0356L11.3522 68.767L11.4572 68.898L11.2744 69.0439Z" fill="#221F1F"/>
<path d="M12.4142 68.8903L12.2228 69.0432L11.8938 68.9298L11.8922 68.9311L12.0759 69.1605L11.922 69.2834L11.4453 68.6879L11.6753 68.5042C11.7923 68.4108 11.9259 68.3961 12.0276 68.5232C12.0934 68.6054 12.1048 68.7127 12.0328 68.7948L12.4142 68.8903ZM11.813 68.8321L11.8279 68.8202C11.878 68.7801 11.9271 68.7253 11.8752 68.6605C11.8234 68.5957 11.7591 68.6315 11.7089 68.6715L11.694 68.6835L11.813 68.8321Z" fill="#221F1F"/>
<path d="M12.6872 68.6665L12.5335 68.7892L12.1618 68.3251L12.0347 68.4267L11.9297 68.2956L12.3377 67.9698L12.4427 68.1009L12.3155 68.2024L12.6872 68.6665Z" fill="#221F1F"/>
<path d="M12.8949 68.3314L12.937 68.4674L12.7737 68.5979L12.525 67.8198L12.6931 67.6855L13.3927 68.1032L13.2287 68.2344L13.1069 68.162L12.8949 68.3314ZM12.7564 67.9368L12.7549 67.9381L12.8431 68.1785L12.971 68.0763L12.7564 67.9368Z" fill="#221F1F"/>
<path d="M13.0308 67.4138L13.1824 67.2925L13.5568 67.5146L13.4297 67.0949L13.5829 66.9724L14.1492 67.497L13.9953 67.6201L13.6777 67.3114L13.6761 67.3127L13.8077 67.77L13.7465 67.819L13.3362 67.5844L13.3346 67.5857L13.5596 67.9684L13.4066 68.0907L13.0308 67.4138Z" fill="#221F1F"/>
<path d="M14.3645 67.3188L14.2108 67.4413L13.7344 66.8474L13.8881 66.7248L14.3645 67.3188Z" fill="#221F1F"/>
<path d="M13.9922 66.6416L14.1461 66.5186L14.7194 66.6578L14.721 66.6565L14.4294 66.2922L14.5833 66.1693L15.0601 66.7651L14.9062 66.888L14.3323 66.7482L14.3308 66.7494L14.6229 67.1144L14.469 67.2374L13.9922 66.6416Z" fill="#221F1F"/>
<path d="M15.2236 66.4578L15.2657 66.5938L15.1018 66.7248L14.8531 65.9466L15.0212 65.8123L15.7209 66.2301L15.5568 66.3612L15.4356 66.2884L15.2236 66.4578ZM15.0846 66.0637L15.083 66.0649L15.1712 66.3054L15.2992 66.2031L15.0846 66.0637Z" fill="#221F1F"/>
<path opacity="0.5" d="M15.1797 23.8229C42.4905 30.3903 67.4807 24.1762 69.6898 23.1062C67.3752 15.5974 26.7991 12.7227 15.1797 23.8229Z" fill="url(#paint22_linear_786_6958)"/>
<path fill-rule="evenodd" clip-rule="evenodd" d="M92.3111 34.4052C90.6306 31.4972 89.9766 27.9823 90.7249 24.4374C92.334 16.8148 99.8177 11.9399 107.44 13.549C115.063 15.1581 119.938 22.6418 118.329 30.2644C116.72 37.887 109.236 42.7619 101.613 41.1528C100.269 40.869 99.0103 40.4026 97.8574 39.7849L89.5356 43.3957L92.3111 34.4052Z" fill="white"/>
<rect width="10.5747" height="13.739" transform="matrix(0.970276 0.235986 -0.192756 0.98012 103.422 16.9394)" fill="black" fill-opacity="0.2"/>
<rect width="10.8446" height="13.9617" transform="matrix(0.970273 0.236002 -0.192743 0.980124 102.773 17.0791)" fill="white"/>
<path fill-rule="evenodd" clip-rule="evenodd" d="M103.825 18.9362C103.887 18.6209 104.209 18.4314 104.544 18.5129L106.256 18.9292C106.591 19.0107 106.813 19.3324 106.751 19.6477L106.33 21.7864C106.268 22.1017 105.946 22.2913 105.611 22.2097L103.899 21.7934C103.564 21.7119 103.343 21.3902 103.405 21.0749L103.825 18.9362ZM104.492 18.777L106.204 19.1934C106.384 19.2372 106.503 19.41 106.47 19.5794L106.049 21.7182C106.016 21.8876 105.843 21.9894 105.663 21.9456L103.951 21.5293C103.771 21.4855 103.652 21.3126 103.685 21.1432L104.106 19.0045C104.139 18.8351 104.312 18.7332 104.492 18.777Z" fill="#F6EDEE"/>
<path d="M109.652 20.3356C109.669 20.2509 109.756 20.2 109.846 20.2219L111.693 20.6713C111.783 20.6932 111.843 20.7796 111.826 20.8643C111.809 20.949 111.723 20.9999 111.633 20.978L109.785 20.5286C109.695 20.5067 109.636 20.4203 109.652 20.3356Z" fill="#F6EDEE"/>
<path d="M107.16 20.7026C107.177 20.6179 107.263 20.567 107.353 20.5889L111.511 21.6C111.601 21.6219 111.66 21.7083 111.643 21.793C111.627 21.8778 111.54 21.9287 111.45 21.9068L107.293 20.8957C107.203 20.8738 107.143 20.7873 107.16 20.7026Z" fill="#F6EDEE"/>
<path d="M103.325 22.3501C103.235 22.3282 103.148 22.3791 103.131 22.4638C103.115 22.5485 103.174 22.6349 103.264 22.6568L110.084 24.3156C110.174 24.3375 110.261 24.2866 110.278 24.2019C110.294 24.1172 110.235 24.0307 110.145 24.0088L103.325 22.3501Z" fill="#F6EDEE"/>
<path d="M102.937 23.4522C102.954 23.3675 103.04 23.3166 103.13 23.3385L109.325 24.8453C109.415 24.8672 109.475 24.9536 109.458 25.0383C109.442 25.123 109.355 25.1739 109.265 25.152L103.07 23.6453C102.98 23.6234 102.92 23.5369 102.937 23.4522Z" fill="#F6EDEE"/>
<path d="M102.631 25.8777C102.541 25.8558 102.454 25.9067 102.438 25.9914C102.421 26.0761 102.481 26.1626 102.571 26.1845L106.891 27.2352C106.981 27.2571 107.067 27.2062 107.084 27.1215C107.101 27.0368 107.041 26.9504 106.951 26.9285L102.631 25.8777Z" fill="#F6EDEE"/>
<path d="M101.903 28.7096C101.92 28.6249 102.006 28.574 102.096 28.5959L107.594 29.933C107.684 29.9549 107.744 30.0413 107.727 30.126C107.71 30.2107 107.624 30.2616 107.534 30.2397L102.036 28.9026C101.946 28.8807 101.886 28.7943 101.903 28.7096Z" fill="#F6EDEE"/>
<path d="M102.452 26.7894C102.362 26.7675 102.275 26.8185 102.258 26.9032C102.242 26.9879 102.301 27.0743 102.391 27.0962L109.438 28.81C109.528 28.8319 109.614 28.781 109.631 28.6963C109.648 28.6116 109.588 28.5252 109.498 28.5033L102.452 26.7894Z" fill="#F6EDEE"/>
<path d="M102.081 27.8064C102.097 27.7217 102.184 27.6708 102.274 27.6926L109.32 29.4065C109.411 29.4284 109.47 29.5148 109.453 29.5995C109.437 29.6842 109.35 29.7351 109.26 29.7132L102.214 27.9994C102.124 27.9775 102.064 27.8911 102.081 27.8064Z" fill="#F6EDEE"/>
<path d="M102.936 24.3269C102.846 24.305 102.759 24.3559 102.743 24.4406C102.726 24.5254 102.786 24.6118 102.876 24.6337L108.491 25.9994C108.581 26.0213 108.668 25.9704 108.684 25.8857C108.701 25.801 108.641 25.7146 108.551 25.6927L102.936 24.3269Z" fill="#F6EDEE"/>
<path d="M107.99 21.6456C108.007 21.5609 108.093 21.5099 108.183 21.5318L111.372 22.3073C111.462 22.3291 111.521 22.4156 111.504 22.5003C111.488 22.585 111.401 22.6359 111.311 22.614L108.123 21.8386C108.033 21.8167 107.974 21.7303 107.99 21.6456Z" fill="#F6EDEE"/>
<mask id="mask0_786_6958" style="mask-type:alpha" maskUnits="userSpaceOnUse" x="104" y="19" width="3" height="3">
<ellipse cx="0.886206" cy="0.792542" rx="0.886206" ry="0.792542" transform="matrix(0.96639 0.250242 -0.181434 0.982219 104.547 19.4387)" fill="#76B2B2"/>
</mask>
<g mask="url(#mask0_786_6958)">
<ellipse cx="0.886206" cy="0.792542" rx="0.886206" ry="0.792542" transform="matrix(0.96639 0.250242 -0.181434 0.982219 104.547 19.4387)" fill="#E7FFE8"/>
<path d="M105.644 20.4629C105.609 20.6565 105.405 20.7662 105.187 20.708C104.97 20.6498 104.822 20.4456 104.856 20.2521C104.891 20.0585 105.095 19.9488 105.313 20.007C105.53 20.0652 105.679 20.2694 105.644 20.4629Z" fill="#60B864"/>
<path d="M105.718 21.3134C105.665 21.6129 105.348 21.7827 105.011 21.6926C104.675 21.6025 104.445 21.2867 104.499 20.9871C104.552 20.6875 104.869 20.5177 105.205 20.6078C105.542 20.6979 105.772 21.0138 105.718 21.3134Z" fill="#60B864"/>
</g>
<rect x="98.0312" y="22.2819" width="8.55312" height="13.3662" rx="0.732834" fill="black" fill-opacity="0.2"/>
<path d="M97.6719 23.3096C97.6719 22.9197 97.988 22.6036 98.3779 22.6036H105.519C105.909 22.6036 106.225 22.9197 106.225 23.3096V35.2637C106.225 35.6537 105.909 35.9698 105.519 35.9698H98.3779C97.988 35.9698 97.6719 35.6537 97.6719 35.2637V23.3096Z" fill="white"/>
<path fill-rule="evenodd" clip-rule="evenodd" d="M105.519 22.8091H98.3779C98.1015 22.8091 97.8774 23.0332 97.8774 23.3096V35.2637C97.8774 35.5401 98.1015 35.7642 98.3779 35.7642H105.519C105.795 35.7642 106.019 35.5401 106.019 35.2637V23.3096C106.019 23.0332 105.795 22.8091 105.519 22.8091ZM98.3779 22.6036C97.988 22.6036 97.6719 22.9197 97.6719 23.3096V35.2637C97.6719 35.6537 97.988 35.9698 98.3779 35.9698H105.519C105.909 35.9698 106.225 35.6537 106.225 35.2637V23.3096C106.225 22.9197 105.909 22.6036 105.519 22.6036H98.3779Z" fill="black"/>
<ellipse cx="101.943" cy="34.522" rx="0.552146" ry="0.552153" fill="#ACC23A"/>
<path fill-rule="evenodd" clip-rule="evenodd" d="M101.948 34.2507C101.968 34.2507 101.985 34.267 101.985 34.2871V34.6471L102.154 34.4773C102.169 34.463 102.192 34.463 102.206 34.4773C102.22 34.4915 102.22 34.5146 102.206 34.5288L101.974 34.7609C101.96 34.7751 101.937 34.7751 101.922 34.7609L101.69 34.5288C101.676 34.5146 101.676 34.4915 101.69 34.4773C101.705 34.463 101.728 34.463 101.742 34.4773L101.912 34.6471V34.2871C101.912 34.267 101.928 34.2507 101.948 34.2507Z" fill="white"/>
<ellipse cx="103.182" cy="24.4631" rx="0.276073" ry="0.276076" fill="#FFC248"/>
<ellipse cx="104.073" cy="24.4631" rx="0.276079" ry="0.276076" fill="#ACC23A"/>
<ellipse cx="104.979" cy="24.4631" rx="0.276073" ry="0.276076" fill="#F92C39"/>
<rect x="98.3203" y="25.8013" width="7.2613" height="3.27123" rx="0.751386" fill="#D0EDFF"/>
<rect x="101.258" y="26.4575" width="2.5003" height="0.270863" rx="0.135431" fill="white"/>
<rect x="101.258" y="27.3015" width="2.5003" height="0.270866" rx="0.135433" fill="white"/>
<circle cx="99.6955" cy="27.4578" r="1.18765" fill="#F92C39"/>
<ellipse cx="104.604" cy="27.4576" rx="0.541726" ry="0.541733" fill="#ACC23A"/>
<path fill-rule="evenodd" clip-rule="evenodd" d="M104.929 27.2757C104.955 27.3028 104.954 27.3457 104.927 27.3715L104.599 27.684C104.573 27.7088 104.532 27.7089 104.506 27.6842L104.318 27.5071C104.291 27.4814 104.29 27.4385 104.315 27.4114C104.341 27.3842 104.384 27.3829 104.411 27.4086L104.552 27.5416L104.834 27.2734C104.861 27.2476 104.904 27.2486 104.929 27.2757Z" fill="white"/>
<rect x="98.3203" y="29.6463" width="7.26129" height="3.27123" rx="0.751386" fill="#D0EDFF"/>
<rect x="101.258" y="30.3024" width="2.5003" height="0.270863" rx="0.135431" fill="white"/>
<rect x="101.258" y="31.1465" width="2.5003" height="0.270869" rx="0.135434" fill="white"/>
<path d="M98.5078 24.4474C98.5078 24.3726 98.5684 24.312 98.6432 24.312H101.664C101.739 24.312 101.8 24.3726 101.8 24.4474C101.8 24.5222 101.739 24.5829 101.664 24.5829H98.6432C98.5684 24.5829 98.5078 24.5222 98.5078 24.4474Z" fill="#D0CECF"/>
<path d="M98.5078 25.1246C98.5078 25.0498 98.5684 24.9892 98.6432 24.9892H101.664C101.739 24.9892 101.8 25.0498 101.8 25.1246C101.8 25.1994 101.739 25.26 101.664 25.26H98.6432C98.5684 25.26 98.5078 25.1994 98.5078 25.1246Z" fill="#D0CECF"/>
<path d="M98.6537 34.5112C98.6537 34.4364 98.7143 34.3757 98.7891 34.3757H100.175C100.249 34.3757 100.31 34.4364 100.31 34.5112C100.31 34.586 100.249 34.6466 100.175 34.6466H98.7891C98.7143 34.6466 98.6537 34.586 98.6537 34.5112Z" fill="#D0CECF"/>
<path d="M103.571 34.5112C103.571 34.4364 103.632 34.3757 103.706 34.3757H105.092C105.167 34.3757 105.227 34.4364 105.227 34.5112C105.227 34.586 105.167 34.6466 105.092 34.6466H103.706C103.632 34.6466 103.571 34.586 103.571 34.5112Z" fill="#D0CECF"/>
<path d="M101.258 28.2812C101.258 28.2064 101.319 28.1458 101.394 28.1458H102.842C102.916 28.1458 102.977 28.2064 102.977 28.2812C102.977 28.356 102.916 28.4167 102.842 28.4167H101.394C101.319 28.4167 101.258 28.356 101.258 28.2812Z" fill="#D0CECF"/>
<path d="M101.258 32.1255C101.258 32.0507 101.319 31.99 101.394 31.99H102.842C102.916 31.99 102.977 32.0507 102.977 32.1255C102.977 32.2003 102.916 32.2609 102.842 32.2609H101.394C101.319 32.2609 101.258 32.2003 101.258 32.1255Z" fill="#D0CECF"/>
<ellipse cx="99.6955" cy="31.3028" rx="1.18765" ry="1.18765" fill="#1190DD"/>
<rect x="99.4844" y="30.6457" width="0.968873" height="0.437567" rx="0.171613" transform="rotate(90 99.4844 30.6457)" fill="#393323"/>
<rect x="100.289" y="30.6457" width="0.968873" height="0.437544" rx="0.171613" transform="rotate(90 100.289 30.6457)" fill="#393323"/>
<path fill-rule="evenodd" clip-rule="evenodd" d="M99.6811 32.1457C99.9546 32.1457 100.184 31.9233 100.244 31.6246C100.305 31.6221 100.355 31.5625 100.355 31.4892C100.355 31.4189 100.309 31.3611 100.251 31.3544C100.205 31.0348 99.9673 30.7913 99.6811 30.7913C99.395 30.7913 99.1574 31.0348 99.1111 31.3545C99.0531 31.3612 99.0078 31.419 99.0078 31.4892C99.0078 31.5624 99.0569 31.6221 99.1184 31.6246C99.1785 31.9233 99.4077 32.1457 99.6811 32.1457Z" fill="#FFBFB6"/>
<rect x="98.9844" y="30.9109" width="1.317" height="0.439781" rx="0.171613" transform="rotate(-7.00417 98.9844 30.9109)" fill="#393323"/>
<rect width="1.317" height="0.439779" rx="0.171613" transform="matrix(0.992537 -0.121941 0.121942 0.992537 99.0469 30.6501)" fill="#393323"/>
<ellipse cx="104.604" cy="31.3025" rx="0.541726" ry="0.541732" fill="#ACC23A"/>
<path fill-rule="evenodd" clip-rule="evenodd" d="M104.929 31.12C104.955 31.147 104.954 31.1899 104.927 31.2157L104.599 31.5282C104.573 31.5531 104.532 31.5531 104.506 31.5284L104.318 31.3513C104.291 31.3256 104.29 31.2828 104.315 31.2556C104.341 31.2284 104.384 31.2272 104.411 31.2529L104.552 31.3859L104.834 31.1176C104.861 31.0918 104.904 31.0929 104.929 31.12Z" fill="white"/>
<path fill-rule="evenodd" clip-rule="evenodd" d="M100.233 27.7518C100.151 27.9634 99.9369 28.1145 99.685 28.1145C99.3628 28.1145 99.1016 27.8673 99.1016 27.5623C99.1016 27.2574 99.3628 27.0102 99.685 27.0102C99.9371 27.0102 100.152 27.1615 100.233 27.3734C100.318 27.3983 100.38 27.4736 100.38 27.5626C100.38 27.6516 100.318 27.7269 100.233 27.7518Z" fill="#FFBFB6"/>
<path fill-rule="evenodd" clip-rule="evenodd" d="M99.9869 27.5677C99.9557 27.566 99.8817 27.5271 99.8359 27.3854C99.8121 27.3854 99.7778 27.3893 99.737 27.394C99.5705 27.413 99.296 27.4443 99.191 27.271C99.1393 27.3494 99.1078 27.441 99.1034 27.5392C99.0447 27.4858 99.0078 27.4088 99.0078 27.3232C99.0078 27.2172 99.0643 27.1245 99.1488 27.0734C99.1652 26.7671 99.5527 26.6829 99.7056 26.7135C99.8619 26.7447 99.9869 26.8124 100.102 27.0052C100.279 27.0052 100.414 27.125 100.352 27.4636C100.279 27.3125 99.9869 27.3281 99.9869 27.5677Z" fill="#54485E"/>
<defs>
<linearGradient id="paint0_linear_786_6958" x1="95.0633" y1="52.7803" x2="95.0633" y2="78.3169" gradientUnits="userSpaceOnUse">
<stop offset="0.6779" stop-color="#B7D440"/>
<stop offset="1" stop-color="#A5BF3A"/>
</linearGradient>
<linearGradient id="paint1_linear_786_6958" x1="75.3506" y1="58.8262" x2="75.3506" y2="73.0164" gradientUnits="userSpaceOnUse">
<stop stop-color="#C7E4F3"/>
<stop offset="0.690789" stop-color="#549DBF"/>
</linearGradient>
<linearGradient id="paint2_linear_786_6958" x1="69.9241" y1="53.8031" x2="69.9241" y2="64.5595" gradientUnits="userSpaceOnUse">
<stop stop-color="#006FB8"/>
<stop offset="1" stop-color="#003979"/>
</linearGradient>
<linearGradient id="paint3_linear_786_6958" x1="76.3529" y1="57.5851" x2="77.9936" y2="61.1878" gradientUnits="userSpaceOnUse">
<stop stop-color="#6B0000"/>
<stop offset="1" stop-color="#7C0405"/>
</linearGradient>
<linearGradient id="paint4_linear_786_6958" x1="72.0512" y1="67.5066" x2="84.6284" y2="61.1179" gradientUnits="userSpaceOnUse">
<stop offset="0.225525" stop-color="#7C0304"/>
<stop offset="1" stop-color="#E31B23"/>
</linearGradient>
<linearGradient id="paint5_linear_786_6958" x1="60.6355" y1="76.9161" x2="47.0625" y2="85.0469" gradientUnits="userSpaceOnUse">
<stop stop-color="#014E91"/>
<stop offset="1" stop-color="#006FB8"/>
</linearGradient>
<linearGradient id="paint6_linear_786_6958" x1="71.864" y1="83.5211" x2="53.5529" y2="85.1213" gradientUnits="userSpaceOnUse">
<stop offset="0.225525" stop-color="#7C0304"/>
<stop offset="1" stop-color="#E31B23"/>
</linearGradient>
<linearGradient id="paint7_linear_786_6958" x1="65.8669" y1="68.2575" x2="64.4747" y2="94.9091" gradientUnits="userSpaceOnUse">
<stop stop-color="#006FB8"/>
<stop offset="1" stop-color="#003979"/>
</linearGradient>
<linearGradient id="paint8_linear_786_6958" x1="66.9218" y1="86.3338" x2="60.2946" y2="92.1425" gradientUnits="userSpaceOnUse">
<stop stop-color="#4D0000"/>
<stop offset="1" stop-color="#8B0304"/>
</linearGradient>
<linearGradient id="paint9_linear_786_6958" x1="45.7323" y1="80.0922" x2="35.8862" y2="93.8479" gradientUnits="userSpaceOnUse">
<stop stop-color="#014E91"/>
<stop offset="1" stop-color="#006FB8"/>
</linearGradient>
<linearGradient id="paint10_linear_786_6958" x1="48.6615" y1="68.7672" x2="55.3574" y2="87.3051" gradientUnits="userSpaceOnUse">
<stop stop-color="#006FB8"/>
<stop offset="1" stop-color="#003979"/>
</linearGradient>
<linearGradient id="paint11_linear_786_6958" x1="54.4593" y1="84.3812" x2="37.489" y2="89.7511" gradientUnits="userSpaceOnUse">
<stop offset="0.225525" stop-color="#7C0304"/>
<stop offset="1" stop-color="#E31B23"/>
</linearGradient>
<linearGradient id="paint12_linear_786_6958" x1="51.2854" y1="90.0259" x2="47.5913" y2="98.7419" gradientUnits="userSpaceOnUse">
<stop stop-color="#4D0000"/>
<stop offset="1" stop-color="#8B0304"/>
</linearGradient>
<linearGradient id="paint13_linear_786_6958" x1="12.9793" y1="43.3829" x2="69.5062" y2="49.1987" gradientUnits="userSpaceOnUse">
<stop offset="0.103403" stop-color="#69B8E1"/>
<stop offset="0.70577" stop-color="#EBF5FC"/>
</linearGradient>
<linearGradient id="paint14_linear_786_6958" x1="32.5063" y1="75.7043" x2="64.7929" y2="36.4467" gradientUnits="userSpaceOnUse">
<stop stop-color="#045296"/>
<stop offset="1" stop-color="#0087C5"/>
</linearGradient>
<linearGradient id="paint15_linear_786_6958" x1="70.0893" y1="47.5882" x2="11.2488" y2="28.0251" gradientUnits="userSpaceOnUse">
<stop stop-color="#C5E9FB"/>
<stop offset="0.776042" stop-color="#3793BB"/>
</linearGradient>
<linearGradient id="paint16_linear_786_6958" x1="23.5844" y1="66.3904" x2="21.8861" y2="59.0658" gradientUnits="userSpaceOnUse">
<stop stop-color="#006FB8"/>
<stop offset="1" stop-color="#003979"/>
</linearGradient>
<linearGradient id="paint17_linear_786_6958" x1="6.07606" y1="71.7123" x2="25.3767" y2="70.7051" gradientUnits="userSpaceOnUse">
<stop stop-color="#C7E4F3"/>
<stop offset="0.77904" stop-color="#368CB4"/>
</linearGradient>
<linearGradient id="paint18_linear_786_6958" x1="17.0363" y1="76.4928" x2="7.61319" y2="79.3695" gradientUnits="userSpaceOnUse">
<stop stop-color="#4D0000"/>
<stop offset="1" stop-color="#8B0304"/>
</linearGradient>
<linearGradient id="paint19_linear_786_6958" x1="21.7875" y1="65.5508" x2="7.468" y2="71.5408" gradientUnits="userSpaceOnUse">
<stop stop-color="#74C0E7"/>
<stop offset="0.940372" stop-color="#E4F2FC"/>
<stop offset="1" stop-color="#EEF8FF"/>
</linearGradient>
<linearGradient id="paint20_linear_786_6958" x1="14.5776" y1="69.9018" x2="20.8373" y2="70.3649" gradientUnits="userSpaceOnUse">
<stop stop-color="#EBF5FC"/>
<stop offset="0.691744" stop-color="#154783"/>
</linearGradient>
<linearGradient id="paint21_linear_786_6958" x1="14.8282" y1="69.9735" x2="19.5854" y2="70.4864" gradientUnits="userSpaceOnUse">
<stop stop-color="#E42734"/>
<stop offset="1" stop-color="#AE1F26"/>
</linearGradient>
<linearGradient id="paint22_linear_786_6958" x1="11.2879" y1="24.8428" x2="71.1082" y2="-1.13237" gradientUnits="userSpaceOnUse">
<stop offset="0.125" stop-color="#368CB4"/>
<stop offset="0.744792" stop-color="#C7E4F3"/>
</linearGradient>
</defs>
</svg>
